<svg width="34" height="32" viewBox="0 0 34 32" fill="none" xmlns="http://www.w3.org/2000/svg">
<path d="M33.6842 0H0V10.1053H1.68421V28.6316C1.68421 29.5249 2.0391 30.3817 2.6708 31.0134C3.3025 31.6451 4.15927 32 5.05263 32H28.6316C29.5249 32 30.3817 31.6451 31.0134 31.0134C31.6451 30.3817 32 29.5249 32 28.6316V10.1053H33.6842V0ZM3.36842 3.36842H30.3158V6.73684H3.36842V3.36842ZM28.6316 28.6316H5.05263V10.1053H28.6316V28.6316ZM11.7895 13.4737H21.8947C21.8947 14.367 21.5399 15.2238 20.9081 15.8555C20.2764 16.4872 19.4197 16.8421 18.5263 16.8421H15.1579C14.2645 16.8421 13.4078 16.4872 12.7761 15.8555C12.1444 15.2238 11.7895 14.367 11.7895 13.4737Z" fill="#E6E6E6"/>
</svg>
