<svg width="400" height="294" viewBox="0 0 400 294" fill="none" xmlns="http://www.w3.org/2000/svg">
<path d="M43.5494 293.603C67.5186 293.603 86.9495 289.569 86.9495 284.591C86.9495 279.614 67.5186 275.579 43.5494 275.579C19.5801 275.579 0.14917 279.614 0.14917 284.591C0.14917 289.569 19.5801 293.603 43.5494 293.603Z" fill="#E6E6E6"/>
<path d="M24.8105 78.7226C33.0738 78.7226 39.7725 72.4478 39.7725 64.7075C39.7725 56.9672 33.0738 50.6924 24.8105 50.6924C16.5471 50.6924 9.84839 56.9672 9.84839 64.7075C9.84839 72.4478 16.5471 78.7226 24.8105 78.7226Z" fill="#2F2E41"/>
<path d="M68.3709 152.018L72.1588 157.321C72.1588 157.321 90.3405 161.109 83.5224 166.791C76.7042 172.472 66.8558 161.487 66.8558 161.487L61.5527 154.669L68.3709 152.018Z" fill="#FFB8B8"/>
<path d="M48.674 91.7907C48.674 91.7907 53.5982 91.7907 54.7345 98.6089C55.8709 105.427 57.0073 128.154 57.0073 128.154C57.0073 128.154 72.9163 148.988 70.2648 151.639C67.6133 154.291 64.583 159.215 62.6891 158.457C60.7952 157.7 44.5073 135.351 44.5073 135.351L48.674 91.7907Z" fill="#E6E6E6"/>
<path d="M33.5227 72.4726C33.5227 72.4726 33.9015 87.2453 38.4469 88.0029C42.9924 88.7605 41.4772 93.6847 41.4772 93.6847C41.4772 93.6847 26.7045 102.397 16.8561 93.6847L14.9622 89.1392C14.9622 89.1392 21.7803 84.215 18.75 77.3969L33.5227 72.4726Z" fill="#FFB8B8"/>
<path d="M58.9012 163.381C58.9012 163.381 81.2496 205.048 72.9163 217.927C64.583 230.805 52.0831 257.32 50.1891 257.32C48.2952 257.32 37.6892 252.017 38.4468 248.608C39.2043 245.199 50.5679 219.821 53.5982 217.548C56.6285 215.275 55.1134 209.215 54.7346 208.836C54.3558 208.457 41.8558 188.381 41.8558 188.381C41.8558 188.381 42.2346 220.199 40.7195 225.124C39.2043 230.048 41.0983 265.275 39.2043 266.79C37.3104 268.305 28.5983 270.957 27.0832 268.684C25.568 266.411 21.0226 231.942 24.0529 223.987L18.3711 169.442L58.9012 163.381Z" fill="#2F2E41"/>
<path d="M38.4468 264.517L47.9165 281.942C47.9165 281.942 61.5528 291.79 52.0832 293.305C42.6135 294.82 36.9317 291.032 36.9317 291.032L28.5984 284.972V267.548L38.4468 264.517Z" fill="#2F2E41"/>
<path d="M51.3255 254.669L46.4012 266.411C46.4012 266.411 44.5073 271.336 46.4012 272.472C48.2952 273.608 53.5982 280.426 50.1891 281.184C49.5033 281.318 48.8064 281.388 48.1075 281.391C45.2688 281.439 42.4497 280.912 39.82 279.842C37.1902 278.771 34.8042 277.18 32.8054 275.164L29.7346 272.093C29.7346 272.093 40.2535 247.87 40.1077 248.05C39.9619 248.23 51.3255 254.669 51.3255 254.669Z" fill="#2F2E41"/>
<path d="M24.0528 81.5635C31.1656 81.5635 36.9316 75.7975 36.9316 68.6848C36.9316 61.572 31.1656 55.806 24.0528 55.806C16.9401 55.806 11.1741 61.572 11.1741 68.6848C11.1741 75.7975 16.9401 81.5635 24.0528 81.5635Z" fill="#FFB8B8"/>
<path d="M16.6666 86.6772L20.6438 90.6544C20.6438 90.6544 32.765 95.1998 38.4468 90.6544C38.4468 90.6544 36.3635 86.2984 36.3635 86.6772C36.3635 87.0559 52.8407 89.5181 54.3558 96.3362C55.8709 103.154 53.2194 114.897 53.2194 114.897C53.2194 114.897 63.8255 164.897 59.6588 166.033C55.4922 167.169 16.4771 176.639 16.8559 169.442C17.2347 162.245 13.8256 132.7 13.8256 132.7L0.568115 107.321C0.568115 107.321 2.46205 98.9877 7.00748 96.3362C11.5529 93.6847 16.6666 86.6772 16.6666 86.6772Z" fill="#E6E6E6"/>
<path d="M33.5227 160.73L38.447 163.76C38.447 163.76 57.3863 176.639 47.5378 178.912C37.6894 181.184 32.0076 169.821 32.0076 169.821L28.2197 165.275L33.5227 160.73Z" fill="#FFB8B8"/>
<path opacity="0.1" d="M5.4924 105.048L2.08332 108.457C2.08332 108.457 -0.189401 140.275 4.35604 146.715C8.90147 153.154 29.7347 170.578 30.8711 169.442C32.0075 168.306 39.2044 162.624 37.6893 161.866C36.1741 161.109 16.0292 140.06 16.0292 140.06L17.6136 110.73L5.4924 105.048Z" fill="black"/>
<path d="M3.97726 103.912L0.56818 107.321C0.56818 107.321 -1.70454 139.139 2.8409 145.578C7.38634 152.018 28.2196 169.442 29.356 168.306C30.4923 167.169 37.6893 161.487 36.1741 160.73C34.659 159.972 14.514 138.923 14.514 138.923L16.0984 109.594L3.97726 103.912Z" fill="#E6E6E6"/>
<path d="M29.3793 50.3913C29.3793 50.3913 33.7571 48.7994 39.7268 52.1822L36.543 52.9782C36.543 52.9782 41.3188 53.3762 41.9158 59.7439H39.7268C39.7268 59.7439 41.1198 65.3157 39.7268 66.9077L38.8314 65.2162L36.2445 70.39L35.6475 67.8031L34.4536 68.2011L33.6576 64.0223C33.6576 64.0223 31.6677 67.0072 30.0757 67.2062V64.6193C30.0757 64.6193 25.6979 69.5941 24.305 69.3951L26.2949 66.6092L23.509 67.2062L24.7029 65.2162L17.5392 67.2062L19.1312 65.2162L14.1564 66.8082L11.7684 67.8031C11.7684 67.8031 8.38557 60.0424 13.1614 54.6696C17.9372 49.2969 24.9019 48.1029 29.3793 50.3913Z" fill="#2F2E41"/>
<path d="M389.976 31.077H99.9482V216.824H389.976V31.077Z" fill="#E6E6E6"/>
<path d="M381.683 54.3743H108.242V205.835H381.683V54.3743Z" fill="white"/>
<path d="M389.852 30.9126H99.8245V43.234H389.852V30.9126Z" fill="#007BFF"/>
<path d="M108.981 39.4957C110.242 39.4957 111.265 38.4732 111.265 37.212C111.265 35.9507 110.242 34.9283 108.981 34.9283C107.72 34.9283 106.697 35.9507 106.697 37.212C106.697 38.4732 107.72 39.4957 108.981 39.4957Z" fill="white"/>
<path d="M117.649 39.4957C118.91 39.4957 119.933 38.4732 119.933 37.212C119.933 35.9507 118.91 34.9283 117.649 34.9283C116.388 34.9283 115.365 35.9507 115.365 37.212C115.365 38.4732 116.388 39.4957 117.649 39.4957Z" fill="white"/>
<path d="M126.317 39.4957C127.579 39.4957 128.601 38.4732 128.601 37.212C128.601 35.9507 127.579 34.9283 126.317 34.9283C125.056 34.9283 124.034 35.9507 124.034 37.212C124.034 38.4732 125.056 39.4957 126.317 39.4957Z" fill="white"/>
<path d="M203.349 70.0896H133.087V190.12H203.349V70.0896Z" fill="#E6E6E6"/>
<path d="M274.029 70.0896H215.478V103.129H274.029V70.0896Z" fill="#007BFF"/>
<path d="M274.029 112.33H215.478V147.879H274.029V112.33Z" fill="#E6E6E6"/>
<path d="M274.029 157.08H215.478V190.12H274.029V157.08Z" fill="#E6E6E6"/>
<path d="M356.837 70.0896H286.575V122.398H356.837V70.0896Z" fill="#E6E6E6"/>
<path d="M356.837 137.811H286.575V190.12H356.837V137.811Z" fill="#007BFF"/>
<path d="M245.356 85.0248L244.439 84.7811L264.455 9.48648H380.553V10.4351H265.184L245.356 85.0248Z" fill="#3F3D56"/>
<path d="M390.039 19.9214C388.069 19.9214 386.143 19.3372 384.505 18.2427C382.867 17.1482 381.591 15.5926 380.837 13.7725C380.083 11.9524 379.886 9.94965 380.27 8.01747C380.654 6.08528 381.603 4.31045 382.996 2.91742C384.389 1.52439 386.164 0.575732 388.096 0.191396C390.028 -0.19294 392.031 0.00431715 393.851 0.758219C395.671 1.51212 397.227 2.78881 398.321 4.42683C399.416 6.06486 400 7.99066 400 9.9607C399.997 12.6015 398.947 15.1333 397.079 17.0007C395.212 18.868 392.68 19.9184 390.039 19.9214ZM390.039 0.948644C388.257 0.948643 386.515 1.47719 385.032 2.46745C383.55 3.4577 382.395 4.8652 381.713 6.51194C381.031 8.15868 380.853 9.9707 381.2 11.7189C381.548 13.467 382.406 15.0728 383.667 16.3332C384.927 17.5936 386.533 18.4519 388.281 18.7996C390.029 19.1473 391.841 18.9689 393.488 18.2868C395.135 17.6047 396.542 16.4496 397.533 14.9675C398.523 13.4855 399.051 11.7431 399.051 9.9607C399.049 7.57139 398.098 5.28072 396.409 3.59122C394.719 1.90171 392.429 0.951358 390.039 0.948644Z" fill="#3F3D56"/>
<path d="M390.039 13.7552C392.135 13.7552 393.834 12.0564 393.834 9.96069C393.834 7.86501 392.135 6.16614 390.039 6.16614C387.944 6.16614 386.245 7.86501 386.245 9.96069C386.245 12.0564 387.944 13.7552 390.039 13.7552Z" fill="#007BFF"/>
<path d="M303.129 239.057H187.031V238.108H302.4L322.228 163.518L323.145 163.762L303.129 239.057Z" fill="#3F3D56"/>
<path d="M177.544 248.543C175.574 248.543 173.649 247.959 172.011 246.864C170.373 245.77 169.096 244.214 168.342 242.394C167.588 240.574 167.391 238.571 167.775 236.639C168.159 234.707 169.108 232.932 170.501 231.539C171.894 230.146 173.669 229.197 175.601 228.813C177.533 228.429 179.536 228.626 181.356 229.38C183.176 230.134 184.732 231.411 185.826 233.049C186.921 234.687 187.505 236.612 187.505 238.582C187.502 241.223 186.452 243.755 184.584 245.622C182.717 247.49 180.185 248.54 177.544 248.543ZM177.544 229.57C175.762 229.57 174.02 230.099 172.538 231.089C171.056 232.079 169.9 233.487 169.218 235.134C168.536 236.78 168.358 238.592 168.706 240.341C169.053 242.089 169.912 243.695 171.172 244.955C172.432 246.215 174.038 247.074 175.786 247.421C177.534 247.769 179.346 247.591 180.993 246.909C182.64 246.226 184.047 245.071 185.038 243.589C186.028 242.107 186.557 240.365 186.557 238.582C186.554 236.193 185.603 233.902 183.914 232.213C182.224 230.523 179.934 229.573 177.544 229.57Z" fill="#3F3D56"/>
<path d="M177.544 242.377C179.64 242.377 181.339 240.678 181.339 238.582C181.339 236.487 179.64 234.788 177.544 234.788C175.449 234.788 173.75 236.487 173.75 238.582C173.75 240.678 175.449 242.377 177.544 242.377Z" fill="#007BFF"/>
</svg>
