<svg width="32" height="32" viewBox="0 0 32 32" fill="none" xmlns="http://www.w3.org/2000/svg">
<path d="M29.432 32.001H2.527C1.85728 31.9994 1.21545 31.7327 0.741891 31.2591C0.26833 30.7855 0.00158451 30.1437 0 29.474L0 23.579C0.00158451 22.9093 0.26833 22.2675 0.741891 21.7939C1.21545 21.3203 1.85728 21.0536 2.527 21.052H10.104V12.631C10.1074 11.9619 10.3748 11.3211 10.8479 10.8479C11.3211 10.3748 11.9619 10.1074 12.631 10.104H21.074V2.568C21.0777 1.88823 21.3493 1.23733 21.8299 0.756563C22.3104 0.275792 22.9612 0.00393922 23.641 0H29.433C30.1129 0.00393676 30.7638 0.275757 31.2445 0.7565C31.7252 1.23724 31.9971 1.88814 32.001 2.568V29.432C31.9971 30.1119 31.7252 30.7628 31.2445 31.2435C30.7638 31.7242 30.1129 31.9961 29.433 32L29.432 32.001Z" fill="#E6E6E6"/>
</svg>
