<?xml version="1.0"?>
<svg xmlns="http://www.w3.org/2000/svg" xmlns:xlink="http://www.w3.org/1999/xlink" version="1.1" id="Capa_1" x="0px" y="0px" viewBox="0 0 358.72 358.72" style="enable-background:new 0 0 358.72 358.72;" xml:space="preserve" width="512px" height="512px" class=""><g><g>
	<g>
		<path d="M330.44,79.82h-85.12V65.18c0.002-4.805-1.913-9.412-5.32-12.8c-3.355-3.353-7.896-5.25-12.64-5.28h-96    c-4.616,0.002-9.056,1.778-12.4,4.96l-0.36,0.36c-3.407,3.388-5.322,7.995-5.32,12.8v14.6h-85C12.68,79.864,0.044,92.5,0,108.1    v175.24c0.044,15.6,12.68,28.236,28.28,28.28v-0.04h302.16c15.585-0.044,28.214-12.655,28.28-28.24V108.1    C358.676,92.5,346.04,79.864,330.44,79.82z M125.04,65.18c0.007-1.715,0.698-3.356,1.92-4.56l0.2-0.2    c1.151-1.049,2.643-1.646,4.2-1.68h96c1.709-0.003,3.35,0.673,4.56,1.88c1.222,1.204,1.913,2.845,1.92,4.56v14.6h-108.8V65.18z     M46.68,299.94h-18.4c-9.156-0.044-16.574-7.444-16.64-16.6V108.1c-0.022-9.219,7.421-16.716,16.64-16.76h18.4V299.94z     M81.36,299.94H58.32l0.04-80.52h23V299.94z M81.36,207.42H58.32l0.04-24h23V207.42z M81.36,171.94H58.32l0.04-80.52h23V171.94z     M265.72,299.94H93l0.04-208.52h172.68V299.94z M300.4,299.94h-23.04v-80.6h23.04V299.94z M300.4,207.34h-23.04v-24h23.04V207.34z     M300.4,171.94h-23.04v-80.6h23.04V171.94z M347.08,283.34c-0.044,9.172-7.468,16.596-16.64,16.64h-18.4V91.34h18.4    c9.172,0.044,16.596,7.468,16.64,16.64V283.34z" data-original="#000000" class="active-path" data-old_color="#000000" fill="#FF9F43"/>
	</g>
</g></g> </svg>
